<?xml version="1.0" encoding="UTF-8"?>
<svg id="Layer_1" xmlns="http://www.w3.org/2000/svg" version="1.1" viewBox="0 0 288 560">
  <!-- Generator: Adobe Illustrator 30.0.0, SVG Export Plug-In . SVG Version: 2.1.1 Build 123)  -->
  <g id="H0SgHn">
    <g>
      <path d="M187.8,23.8c1.8,1.6,5.6,17.6,5.5,20.9l9.8-4.4c2.8,1.2,5.6,1,8.5,1.5s4.6.7,6.7,1.2c5.1,1.2,6.8,11.9,3.1,13.5s-4.6.8-7.4,2.1c-4.5,2.1-9.4,7.2-13.3,9.4-9.3,5.3-23.5,7.4-30.6,16.1s-3.7,4.9-3.3,5.6l1.6.2c1-.5,1.9-1.7,2.9-2.1,18.4-7.3,36.4-12.2,55.8-16.1s2.1-1.9,3.5-2,5.4,1.2,5.7,1.3c.6.2,1.2,1.6,1.7,1.8,3.2,1.7,5.9,1.4,6.5,6.2,1.3,10.9-8.5,23.6-17.5,29-2.3,1.4-5.9,1.5-8.1,3.6l1.2,8.9-1.9,4.4c-4,1.8-7.1-1.1-11.3-.4-2.1.3-8.8,3.3-11.3,4s-4.6.8-6.3.9l-2.1,10.4c6.8,0,13.5-1.7,20.2-2.5s3.1.8,6.1-1.3c5.5,3.2,15.5,4.1,15.1,12.2s-2.4,7.6-2.7,8c-2.5,5.1-14,14.6-18.2,19.3-6.7,7.5-12.9,16.1-19.8,23.4-2.1,2.3-7.6,5.8-9.9,9.2-3.6,5.5.9,14.3,0,20.6l2.4.2,9.3-15c7.9-8.8,19.1-28.6,33.9-22,6.9,3,6.4,12.8,9.4,18.7l14,3.6c7.9,6.8,13.6,20.9-1.9,22.3s-6.1-2.2-10-2.4-6.4,1.5-6.8.8l3.5-5.8c-.2-.7-8.7-7.7-10.1-9.8s-1.5-4.6-1.8-5c-1.9-2.9-4-5.8-6.1-8.6-7.1-1.2-6.3,1.7-9.3,5.5s-3.4,2.1-3.8,3,0,3-1,4.8c-5.8,11.4-8.5,23.9-12.8,35.8-.8,2.1-6.4,6-8.6,6-3.6-.4-4-3.8-5.7-6.2-.2-.3-1.3.1-1.6-.4-6.7-10.9-5.1-22.2-5.8-34.2h-2.4c.1.8-1.5,2.6-1.8,2.8-9.1,6.2-17.1,11.5-27.4,15.6s-8.6,5.9-10.8,1.9.4-7.5,1.1-8.6,5.3-2.9,5.9-3.4c14.8-11.3,25.7-25.2,39-37.8,2.1-2,5.5-2,6.4-6.5,0-2.1-9.2-6.3-10.7-7.4s-3.5-5.2-7.8-7.2-3.7-.3-5.3-1.7l-11.7,2.3-3.8-5.2,1.3-7c1.7-3.9,33.5-13.5,39.3-14.3l.8-10.9-1-.7c-7.4.7-13.9-1.1-21.2,1.3l-2.2-1-1.7-4,21.5-8.9v-3.2c-.1,0-8-7.1-8-7.1h-2s-11.5,7.5-11.5,7.5v2.8c-3.6-.5-2.4,2.4-3.2,3.3s-2.4,1.1-3,1.8c-1.9,2.2-2.9,5.6-6.1,7-2.6.7-5.6,0-7-2.4s-1.2-9.6-2.5-13.3c3.1-4,5.4-8.6,5.1-13.6l6.3-.7c6.5-5.8,12-12.5,16.5-20.1-.5-1.1-2.6-.4-3.6-1s-3.4-3.3-3.7-3.4c-2-.6-4.8.4-6.4.2s-7-3-7.8-3.4c-3.9-1.8-8.4-6.3-12.9-6.8v-1.6s48.8-15.3,48.8-15.3l.6-2.3c-3.5-1.1-6.6-3.3-9.6-5s-2.1,0-2.9-.4c-1.2-.7-1.3-2.4-2.3-3.1-3-2.1-7.1-.8-7.6-5.4,2.5-1.1,5.2-3,7.4-4.7s.5-1.7,1.8-2.6c7.3-4.8,21.1-7,28.9-3ZM219.7,85.3c.9-.9,2.8-.8,3.6-2l.4-1.3c-1.3-1.9-3.6.9-4,1-9.5,2.8-17.5,6.8-27,9.7l-13.4,7.8v1.2c3.6,1.3,6.5-.6,10.3,1.1s1.6,3.8,6,2.6,15.6-12.9,18.1-15c2.7-2.2,3.5-2.7,6.1-5.2ZM207.1,148.7c-2.4-1-3.5,1-4.1,1.2-2.5.9-11.5,4.1-13.3,5.3-2.9,1.9-1.6,3.6-2,4.3-.6,1-3.4,3.4-3.5,3.6-.2.5-.3,10.4.2,10.5l22.6-24.9Z"/>
      <path d="M102.5,102.5c2.7,3.6,9.5,4.8,12.2,8,2.2,2.7,4.7,9.7,4.3,13.1-1,10.5-17.2,12.8-18.6,18-1.5,5.4-1.1,11.9-1.8,17.3-3.3,26.3-8.6,53.4-8.7,79.8s1.6,18.4-4.8,23.1c-.9.1-5.8-3.7-6.4-4.3-6-6.9-5.5-9.7-7.3-17.8-.3-1.5-2.1-3.2-2.4-5.1-.6-3.9,2.5-6.3,3.3-10.4,3.6-20.4,3.5-44.5,5.7-65.4.3-2.5,1.2-4.9,1.5-7.5-.3-.3-4.9,1.8-5.5,2.1-6.7,3.6-13.7,6.4-20.3,10.5-.7.4-2,0-2.5.4s-.2,1.8-1,2.3c-4,2.9-6.7,6.2-12.4,5.3s-8.2-14.6-8.1-18.8l-2.5-1.7,2.5-1.6-2.5-2.9c0-5.3,3.2-6.7,4.9-10.1,3.5-6.8,6.4-14,10.9-20.3,7.3-10.1,18.8-16.4,26.4-26.4l-1.3,24.7,1.3,4.8c1.9,2.4,11.2-5.8,13.9-4.6.5-.3,1.9-9.5,2.1-11s-.9-1.1-.8-2c.9-8.3,3-16.4,2-25s-3.9-13.9-2-15.1c7.8,2,11.5-6.1,19.1-1.5l5.7,11.5c-7.3,8.7-6.8,19.5-6.9,30.5Z"/>
    </g>
  </g>
  <g>
    <path d="M173.1,477.5c-1.9-3-8.9-17.8-7.9-20.5,1.1-3.1,13.3-6.3,15.9-8.2,1.6-1.2,7-9.7,6.8-11.9-.3-3.3-7.6-7.5-9.5-13.3-2.1-6.6,1.6-17.4-4.6-18.1-.7,0,0,4.7-4.6,1.4,2.6,6.1-.9,5.1-1.3,6.4-7.1,24.9-17.8,47-25.5,70-1.7,5.1-1.5,7.4-2.9,12s-6.8,24.3-7.5,25.4c-4.8,7.1-7-3-8.2-3.8s-4-.2-5.1-.9-1.5-7-2.3-9.1-2.5-3.3-3-5c-2.2-7.9,1.2-4.6,4-5.9s3.4-6.5,5.1-9.3c1.7-2.8,5.5-6.5,6.8-9.5,1.2-2.7,1-7.9,2.2-9.5s12.4,0,4.8-12.9c4.5-20.7,17.7-46,20.4-66.3,1.6-11.7.3-19.4-11.7-22.4,2.6-3.4,9.9-5,11.9-8.1,2.5-3.8,1-12,1.5-12.5,1.3-1.4,6,3.4,7.7,3.8,6.1,1.3,23.6-12.2,31-15.1,7.4-2.9,18-5.7,25.7-3.1s16.4,16.6,16.5,19.1-2,3.3-2.1,5.4c-.3,5.3.3,9.5-1.2,14.8-11.9,44.1-8.4,77.8-3.3,122.3,1,8.5,2.3,19-4.3,25s-11.2,5.6-19.3,3.4c-10.5-2.9-23.7-10.8-28.6-20.8s-6.6-18.6-7.4-22.6c5.7,9.2,22.7,23,33.4,15.4,4.2-2.9,2.8-36,2.6-43.4l-37.2,16.1c-.4.5.9,10.3,1.2,11.9ZM208.9,348.2c-2.9-1.8-34.9,7.6-36.3,10.8-2,4.6,2,12.3,2.5,18s-.7,7.9-1.2,12.7c-1.4,12.2,4.1-1.1,4.6-1.4,1.7-1.1,5.1,1.2,7,.9s12.1-12.2,17.5-2.3c5.6,10.2-9.4,21.1-8.7,28.6.4,4.6,5.5,4.4,7.6,6.5,3.3,3.1,3.2,10,7.7,11.6-.4-8.5,3.8-82.3-.8-85.3Z"/>
    <path d="M115.3,349.6c1.1,2.2.3,6.6-.4,9.1-1.4,5.5-11.4,14.1-13.1,17.6s-3.9,18-2.1,19.5,6,.2,9.6,4.4c7.2,8.5,2.1,18.5-1.9,26.8s-2.6,1.5-3.6,3.4c-1.9,3.7-13.7,28-12.4,29.7s18.2-7.3,20.3-8.4c5.5-3,17.4-16.1,13.8-1s-6.7,10.5-8.9,12.5c-15.9,14.8-44.5,24.2-64.3,33.2-5.9,2.7-8.6-5.8-9.8-10.9-3.3-14.3,12.2-16.3,17.4-24.2s11.5-27.9,10.1-29.3c-4.9-2.9-32.5,3-29.4-6s23.7-12.6,27.3-15.4c3.6-2.8,5.2-6.5,8-9.4,3.8-3.9,8.5-2.5,9.9-11.4.6-3.7-.5-20.1-2.5-22.7s-11.3.6-16.5-.6-5.5-3.6-5.7-3.8c-.4-.6,1.6-14.3,2.1-14.8,1.1-1,7.8,3,11.2,2.7,8.5-.7,7.3-8.8,22.9-8,4.6.2,15.6,3,17.7,7Z"/>
  </g>
</svg>